<svg width="143" height="39" viewBox="0 0 143 39" fill="none" xmlns="http://www.w3.org/2000/svg">
<path d="M24.2327 18.1081C24.2327 19.7546 23.9214 21.3042 23.2988 22.7569C22.6762 24.1959 21.8253 25.4549 20.7461 26.5341C19.6669 27.5995 18.4009 28.4435 16.9482 29.0661C15.5092 29.6887 13.9665 30 12.3201 30C10.6736 30 9.124 29.6887 7.67124 29.0661C6.23231 28.4435 4.97325 27.5995 3.89406 26.5341C2.8287 25.4549 1.98472 24.1959 1.3621 22.7569C0.739493 21.3042 0.428187 19.7546 0.428187 18.1081V0.239148H6.36375V18.1081C6.36375 18.9244 6.51595 19.6923 6.82034 20.4118C7.13856 21.1312 7.56747 21.7608 8.10707 22.3004C8.64666 22.84 9.27619 23.2689 9.99566 23.5871C10.729 23.8915 11.5038 24.0437 12.3201 24.0437C13.1364 24.0437 13.9043 23.8915 14.6237 23.5871C15.357 23.2689 15.9935 22.84 16.5331 22.3004C17.0727 21.7608 17.4947 21.1312 17.7991 20.4118C18.1173 19.6923 18.2764 18.9244 18.2764 18.1081V0.239148H24.2327V18.1081ZM34.0492 30H28.3835V7.77275H29.7532L31.621 10.4085C32.5342 9.57833 33.5719 8.94188 34.7341 8.49913C35.8963 8.04255 37.1 7.81426 38.3453 7.81426H43.3469V13.4593H38.3453C37.7503 13.4593 37.19 13.57 36.6642 13.7913C36.1384 14.0127 35.6819 14.3171 35.2945 14.7045C34.9071 15.0919 34.6027 15.5485 34.3813 16.0742C34.1599 16.6 34.0492 17.1604 34.0492 17.7553V30ZM62.1498 27.4058C61.6932 27.8209 61.202 28.2152 60.6763 28.5887C60.1643 28.9485 59.6247 29.2667 59.0575 29.5434C58.4902 29.8063 57.9022 30.0138 57.2934 30.166C56.6985 30.3321 56.0897 30.4151 55.4671 30.4151C54.0973 30.4151 52.8106 30.1729 51.6069 29.6887C50.4032 29.2044 49.3447 28.5196 48.4316 27.6341C47.5322 26.7347 46.8197 25.6486 46.2939 24.3757C45.782 23.089 45.526 21.6501 45.526 20.059V7.77275H51.1711V20.059C51.1711 20.8061 51.2817 21.4771 51.5031 22.0721C51.7383 22.6532 52.0496 23.1444 52.437 23.5456C52.8244 23.9468 53.2741 24.2512 53.786 24.4588C54.3118 24.6663 54.8721 24.7701 55.4671 24.7701C56.0482 24.7701 56.5947 24.6386 57.1066 24.3757C57.6324 24.099 58.089 23.7393 58.4764 23.2965C58.8638 22.8538 59.1682 22.3557 59.3895 21.8023C59.6109 21.235 59.7216 20.6539 59.7216 20.059V7.77275H65.3874V30H64.0176L62.1498 27.4058ZM142.923 18.6892C142.923 20.3495 142.626 21.8991 142.031 23.3381C141.436 24.7631 140.627 26.0014 139.603 27.053C138.579 28.0907 137.375 28.9139 135.992 29.5227C134.622 30.1176 133.148 30.4151 131.571 30.4151C130.008 30.4151 128.534 30.1176 127.15 29.5227C125.781 28.9139 124.577 28.0907 123.539 27.053C122.515 26.0014 121.706 24.7631 121.111 23.3381C120.516 21.8991 120.219 20.3495 120.219 18.6892C120.219 17.0012 120.516 15.4378 121.111 13.9989C121.706 12.5599 122.515 11.3216 123.539 10.284C124.577 9.23243 125.781 8.4092 127.15 7.81426C128.534 7.21932 130.008 6.92185 131.571 6.92185C133.148 6.92185 134.622 7.20548 135.992 7.77275C137.375 8.32619 138.579 9.12175 139.603 10.1594C140.627 11.1833 141.436 12.4216 142.031 13.8744C142.626 15.3133 142.923 16.9182 142.923 18.6892ZM137.216 18.6892C137.216 17.7761 137.064 16.9528 136.759 16.2195C136.469 15.4724 136.068 14.8359 135.556 14.3102C135.044 13.7706 134.442 13.3624 133.75 13.0857C133.072 12.7952 132.346 12.6499 131.571 12.6499C130.796 12.6499 130.063 12.7952 129.371 13.0857C128.693 13.3624 128.098 13.7706 127.586 14.3102C127.088 14.8359 126.694 15.4724 126.403 16.2195C126.113 16.9528 125.968 17.7761 125.968 18.6892C125.968 19.547 126.113 20.3426 126.403 21.0759C126.694 21.8092 127.088 22.4456 127.586 22.9852C128.098 23.5248 128.693 23.9537 129.371 24.272C130.063 24.5764 130.796 24.7286 131.571 24.7286C132.346 24.7286 133.072 24.5833 133.75 24.2927C134.442 24.0022 135.044 23.594 135.556 23.0683C136.068 22.5425 136.469 21.906 136.759 21.1589C137.064 20.4118 137.216 19.5885 137.216 18.6892Z" fill="#DCDCDC"/>
<path d="M85.5392 18.6892C85.5392 17.9144 85.3871 17.1673 85.0827 16.4478C84.7921 15.7145 84.3909 15.0711 83.8789 14.5177C83.367 13.9504 82.7652 13.5008 82.0734 13.1687C81.3954 12.8228 80.669 12.6499 79.8942 12.6499C79.1194 12.6499 78.3861 12.7813 77.6943 13.0442C77.0164 13.3071 76.4214 13.6945 75.9095 14.2064C75.4114 14.7183 75.0171 15.3548 74.7266 16.1158C74.436 16.8629 74.2907 17.7207 74.2907 18.6892C74.2907 19.6162 74.436 20.4533 74.7266 21.2004C75.0171 21.9337 75.4114 22.5632 75.9095 23.089C76.4214 23.6148 77.0164 24.0229 77.6943 24.3135C78.3861 24.5902 79.1194 24.7286 79.8942 24.7286C80.669 24.7286 81.3954 24.5625 82.0734 24.2305C82.7652 23.8846 83.367 23.4349 83.8789 22.8815C84.3909 22.3142 84.7921 21.6708 85.0827 20.9514C85.3871 20.2181 85.5392 19.464 85.5392 18.6892ZM91.2465 27.1982C91.2465 28.7617 90.9491 30.2283 90.3541 31.598C89.7592 32.9678 88.9429 34.1646 87.9052 35.1884C86.8813 36.2123 85.6776 37.0217 84.294 37.6166C82.9243 38.2116 81.4577 38.509 79.8942 38.509L77.051 38.4675V32.8018L79.8527 32.8433C80.7382 32.8433 81.4923 32.7257 82.1149 32.4904C82.7375 32.2691 83.2633 31.9578 83.6922 31.5565C84.1211 31.1691 84.4601 30.7195 84.7091 30.2075C84.972 29.6956 85.1795 29.156 85.3317 28.5887C85.1103 28.9485 84.7921 29.2459 84.377 29.4812C83.962 29.7025 83.4985 29.8824 82.9865 30.0208C82.4884 30.1729 81.9627 30.2767 81.4093 30.3321C80.8697 30.3874 80.3646 30.4151 79.8942 30.4151C78.3308 30.4151 76.8573 30.1453 75.4737 29.6057C74.1039 29.0661 72.9002 28.2982 71.8625 27.302C70.8387 26.292 70.0293 25.0606 69.4343 23.6079C68.8394 22.1551 68.5419 20.5155 68.5419 18.6892C68.5419 17.0151 68.8394 15.4586 69.4343 14.0196C70.0293 12.5807 70.8387 11.3355 71.8625 10.284C72.9002 9.23243 74.1039 8.4092 75.4737 7.81426C76.8573 7.21932 78.3308 6.92185 79.8942 6.92185C80.6137 6.92185 81.3262 7.01178 82.0319 7.19165C82.7375 7.37151 83.4224 7.62056 84.0865 7.93878C84.7506 8.25701 85.3801 8.63057 85.9751 9.05948C86.5838 9.48839 87.1511 9.95189 87.6769 10.45L89.8768 7.81426H91.2465V27.1982ZM111.398 18.6892C111.398 17.9144 111.246 17.1673 110.942 16.4478C110.651 15.7145 110.25 15.0711 109.738 14.5177C109.226 13.9504 108.624 13.5008 107.933 13.1687C107.255 12.8228 106.528 12.6499 105.753 12.6499C104.979 12.6499 104.245 12.7813 103.553 13.0442C102.876 13.3071 102.281 13.6945 101.769 14.2064C101.271 14.7183 100.876 15.3548 100.586 16.1158C100.295 16.8629 100.15 17.7207 100.15 18.6892C100.15 19.6162 100.295 20.4533 100.586 21.2004C100.876 21.9337 101.271 22.5632 101.769 23.089C102.281 23.6148 102.876 24.0229 103.553 24.3135C104.245 24.5902 104.979 24.7286 105.753 24.7286C106.528 24.7286 107.255 24.5625 107.933 24.2305C108.624 23.8846 109.226 23.4349 109.738 22.8815C110.25 22.3142 110.651 21.6708 110.942 20.9514C111.246 20.2181 111.398 19.464 111.398 18.6892ZM117.106 27.1982C117.106 28.7617 116.808 30.2283 116.213 31.598C115.618 32.9678 114.802 34.1646 113.764 35.1884C112.74 36.2123 111.537 37.0217 110.153 37.6166C108.783 38.2116 107.317 38.509 105.753 38.509L102.91 38.4675V32.8018L105.712 32.8433C106.597 32.8433 107.351 32.7257 107.974 32.4904C108.597 32.2691 109.122 31.9578 109.551 31.5565C109.98 31.1691 110.319 30.7195 110.568 30.2075C110.831 29.6956 111.039 29.156 111.191 28.5887C110.969 28.9485 110.651 29.2459 110.236 29.4812C109.821 29.7025 109.358 29.8824 108.846 30.0208C108.348 30.1729 107.822 30.2767 107.268 30.3321C106.729 30.3874 106.224 30.4151 105.753 30.4151C104.19 30.4151 102.716 30.1453 101.333 29.6057C99.9631 29.0661 98.7594 28.2982 97.7217 27.302C96.6978 26.292 95.8884 25.0606 95.2935 23.6079C94.6986 22.1551 94.4011 20.5155 94.4011 18.6892C94.4011 17.0151 94.6986 15.4586 95.2935 14.0196C95.8884 12.5807 96.6978 11.3355 97.7217 10.284C98.7594 9.23243 99.9631 8.4092 101.333 7.81426C102.716 7.21932 104.19 6.92185 105.753 6.92185C106.473 6.92185 107.185 7.01178 107.891 7.19165C108.597 7.37151 109.282 7.62056 109.946 7.93878C110.61 8.25701 111.239 8.63057 111.834 9.05948C112.443 9.48839 113.01 9.95189 113.536 10.45L115.736 7.81426H117.106V27.1982Z" fill="#9BA809"/>
</svg>
